{
  "asset": {
    "generator": "Khronos glTF Blender I/O v5.1.20",
    "version": "2.0"
  },
  "scene": 0,
  "scenes": [
    {
      "name": "Scene",
      "nodes": [
        0
      ]
    }
  ],
  "nodes": [
    {
      "mesh": 0,
      "name": "portable_welding_cart"
    }
  ],
  "materials": [
    {
      "doubleSided": true,
      "name": "portable_welding_cart",
      "normalTexture": {
        "index": 0
      },
      "pbrMetallicRoughness": {
        "baseColorTexture": {
          "index": 1
        },
        "metallicRoughnessTexture": {
          "index": 2
        }
      }
    },
    {
      "alphaMode": "BLEND",
      "doubleSided": true,
      "name": "portable_welding_cart_glass",
      "normalTexture": {
        "index": 3
      },
      "pbrMetallicRoughness": {
        "baseColorTexture": {
          "index": 4
        },
        "metallicRoughnessTexture": {
          "index": 5
        }
      }
    }
  ],
  "meshes": [
    {
      "name": "Cylinder.044",
      "primitives": [
        {
          "attributes": {
            "POSITION": 0,
            "NORMAL": 1,
            "TEXCOORD_0": 2
          },
          "indices": 3,
          "material": 0
        },
        {
          "attributes": {
            "POSITION": 4,
            "NORMAL": 5,
            "TEXCOORD_0": 6
          },
          "indices": 7,
          "material": 1
        }
      ]
    }
  ],
  "textures": [
    {
      "sampler": 0,
      "source": 0
    },
    {
      "sampler": 0,
      "source": 1
    },
    {
      "sampler": 0,
      "source": 2
    },
    {
      "sampler": 0,
      "source": 0
    },
    {
      "sampler": 0,
      "source": 3
    },
    {
      "sampler": 0,
      "source": 2
    }
  ],
  "images": [
    {
      "mimeType": "image/jpeg",
      "name": "portable_welding_cart_nor_gl",
      "uri": "textures/portable_welding_cart_nor_gl_1k.jpg"
    },
    {
      "mimeType": "image/jpeg",
      "name": "portable_welding_cart_diff",
      "uri": "textures/portable_welding_cart_diff_1k.jpg"
    },
    {
      "mimeType": "image/jpeg",
      "name": "portable_welding_cart_metal-portable_welding_cart_rough",
      "uri": "textures/portable_welding_cart_arm_1k.jpg"
    },
    {
      "mimeType": "image/jpeg",
      "name": "portable_welding_cart_diff-portable_welding_cart_alpha",
      "uri": "textures/portable_welding_cart_diff_1k.jpg"
    }
  ],
  "accessors": [
    {
      "bufferView": 0,
      "componentType": 5126,
      "count": 21319,
      "max": [
        0.41558659076690674,
        1.5612741708755493,
        0.26767003536224365
      ],
      "min": [
        -0.4227015972137451,
        -0.0018960833549499512,
        -0.3872338831424713
      ],
      "type": "VEC3"
    },
    {
      "bufferView": 1,
      "componentType": 5126,
      "count": 21319,
      "type": "VEC3"
    },
    {
      "bufferView": 2,
      "componentType": 5126,
      "count": 21319,
      "type": "VEC2"
    },
    {
      "bufferView": 3,
      "componentType": 5123,
      "count": 87774,
      "type": "SCALAR"
    },
    {
      "bufferView": 4,
      "componentType": 5126,
      "count": 176,
      "max": [
        0.05502548813819885,
        1.5278592109680176,
        0.028239265084266663
      ],
      "min": [
        -0.3033144474029541,
        1.0609986782073975,
        0.0032566534355282784
      ],
      "type": "VEC3"
    },
    {
      "bufferView": 5,
      "componentType": 5126,
      "count": 176,
      "type": "VEC3"
    },
    {
      "bufferView": 6,
      "componentType": 5126,
      "count": 176,
      "type": "VEC2"
    },
    {
      "bufferView": 7,
      "componentType": 5123,
      "count": 480,
      "type": "SCALAR"
    }
  ],
  "bufferViews": [
    {
      "buffer": 0,
      "byteLength": 255828,
      "byteOffset": 0,
      "target": 34962
    },
    {
      "buffer": 0,
      "byteLength": 255828,
      "byteOffset": 255828,
      "target": 34962
    },
    {
      "buffer": 0,
      "byteLength": 170552,
      "byteOffset": 511656,
      "target": 34962
    },
    {
      "buffer": 0,
      "byteLength": 175548,
      "byteOffset": 682208,
      "target": 34963
    },
    {
      "buffer": 0,
      "byteLength": 2112,
      "byteOffset": 857756,
      "target": 34962
    },
    {
      "buffer": 0,
      "byteLength": 2112,
      "byteOffset": 859868,
      "target": 34962
    },
    {
      "buffer": 0,
      "byteLength": 1408,
      "byteOffset": 861980,
      "target": 34962
    },
    {
      "buffer": 0,
      "byteLength": 960,
      "byteOffset": 863388,
      "target": 34963
    }
  ],
  "samplers": [
    {
      "magFilter": 9729,
      "minFilter": 9987
    }
  ],
  "buffers": [
    {
      "byteLength": 864348,
      "uri": "portable_welding_cart.bin"
    }
  ]
}