{
  "asset": {
    "generator": "Khronos glTF Blender I/O v4.4.56",
    "version": "2.0"
  },
  "extensionsUsed": [
    "KHR_materials_transmission",
    "KHR_materials_emissive_strength"
  ],
  "scene": 0,
  "scenes": [
    {
      "name": "Scene",
      "nodes": [
        0
      ]
    }
  ],
  "nodes": [
    {
      "mesh": 0,
      "name": "hanging_industrial_lamp"
    }
  ],
  "materials": [
    {
      "doubleSided": true,
      "emissiveFactor": [
        1,
        1,
        1
      ],
      "emissiveTexture": {
        "index": 0
      },
      "extensions": {
        "KHR_materials_emissive_strength": {
          "emissiveStrength": 24.999998092651367
        }
      },
      "name": "hanging_industrial_lamp",
      "normalTexture": {
        "index": 1
      },
      "pbrMetallicRoughness": {
        "baseColorTexture": {
          "index": 2
        },
        "metallicRoughnessTexture": {
          "index": 3
        }
      }
    },
    {
      "doubleSided": true,
      "extensions": {
        "KHR_materials_transmission": {
          "transmissionFactor": 1
        }
      },
      "name": "hanging_industrial_lamp_glass",
      "normalTexture": {
        "index": 4
      },
      "pbrMetallicRoughness": {
        "baseColorFactor": [
          0.800000011920929,
          0.800000011920929,
          0.800000011920929,
          1
        ],
        "metallicFactor": 0,
        "roughnessFactor": 0.10000000149011612
      }
    }
  ],
  "meshes": [
    {
      "name": "Cylinder",
      "primitives": [
        {
          "attributes": {
            "POSITION": 0,
            "NORMAL": 1,
            "TEXCOORD_0": 2
          },
          "indices": 3,
          "material": 0
        },
        {
          "attributes": {
            "POSITION": 4,
            "NORMAL": 5,
            "TEXCOORD_0": 6
          },
          "indices": 7,
          "material": 1
        }
      ]
    }
  ],
  "textures": [
    {
      "sampler": 0,
      "source": 0
    },
    {
      "sampler": 0,
      "source": 1
    },
    {
      "sampler": 0,
      "source": 2
    },
    {
      "sampler": 0,
      "source": 3
    },
    {
      "sampler": 0,
      "source": 4
    }
  ],
  "images": [
    {
      "mimeType": "image/jpeg",
      "name": "hanging_industrial_lamp_emissive",
      "uri": "textures/hanging_industrial_lamp_emissive_1k.jpg"
    },
    {
      "mimeType": "image/jpeg",
      "name": "hanging_industrial_lamp_nor_gl",
      "uri": "textures/hanging_industrial_lamp_nor_gl_1k.jpg"
    },
    {
      "mimeType": "image/jpeg",
      "name": "hanging_industrial_lamp_diff",
      "uri": "textures/hanging_industrial_lamp_diff_1k.jpg"
    },
    {
      "mimeType": "image/jpeg",
      "name": "hanging_industrial_lamp_metal-hanging_industrial_lamp_rough",
      "uri": "textures/hanging_industrial_lamp_arm_1k.jpg"
    },
    {
      "mimeType": "image/jpeg",
      "name": "hanging_industrial_lamp_glass_nor_gl",
      "uri": "textures/hanging_industrial_lamp_glass_nor_gl_1k.jpg"
    }
  ],
  "accessors": [
    {
      "bufferView": 0,
      "componentType": 5126,
      "count": 8155,
      "max": [
        0.2748033106327057,
        0.015337205491960049,
        0.2748030722141266
      ],
      "min": [
        -0.27480319142341614,
        -1.3400129079818726,
        -0.27480337023735046
      ],
      "type": "VEC3"
    },
    {
      "bufferView": 1,
      "componentType": 5126,
      "count": 8155,
      "type": "VEC3"
    },
    {
      "bufferView": 2,
      "componentType": 5126,
      "count": 8155,
      "type": "VEC2"
    },
    {
      "bufferView": 3,
      "componentType": 5123,
      "count": 26436,
      "type": "SCALAR"
    },
    {
      "bufferView": 4,
      "componentType": 5126,
      "count": 816,
      "max": [
        0.24996089935302734,
        -1.0371685028076172,
        0.24996091425418854
      ],
      "min": [
        -0.24996091425418854,
        -1.3290307521820068,
        -0.24996091425418854
      ],
      "type": "VEC3"
    },
    {
      "bufferView": 5,
      "componentType": 5126,
      "count": 816,
      "type": "VEC3"
    },
    {
      "bufferView": 6,
      "componentType": 5126,
      "count": 816,
      "type": "VEC2"
    },
    {
      "bufferView": 7,
      "componentType": 5123,
      "count": 2154,
      "type": "SCALAR"
    }
  ],
  "bufferViews": [
    {
      "buffer": 0,
      "byteLength": 97860,
      "byteOffset": 0,
      "target": 34962
    },
    {
      "buffer": 0,
      "byteLength": 97860,
      "byteOffset": 97860,
      "target": 34962
    },
    {
      "buffer": 0,
      "byteLength": 65240,
      "byteOffset": 195720,
      "target": 34962
    },
    {
      "buffer": 0,
      "byteLength": 52872,
      "byteOffset": 260960,
      "target": 34963
    },
    {
      "buffer": 0,
      "byteLength": 9792,
      "byteOffset": 313832,
      "target": 34962
    },
    {
      "buffer": 0,
      "byteLength": 9792,
      "byteOffset": 323624,
      "target": 34962
    },
    {
      "buffer": 0,
      "byteLength": 6528,
      "byteOffset": 333416,
      "target": 34962
    },
    {
      "buffer": 0,
      "byteLength": 4308,
      "byteOffset": 339944,
      "target": 34963
    }
  ],
  "samplers": [
    {
      "magFilter": 9729,
      "minFilter": 9987
    }
  ],
  "buffers": [
    {
      "byteLength": 344252,
      "uri": "hanging_industrial_lamp.bin"
    }
  ]
}